<svg width="122" height="25" viewBox="0 0 122 25" fill="none" xmlns="http://www.w3.org/2000/svg">
<path fill-rule="evenodd" clip-rule="evenodd" d="M18.7039 5.75655C18.7039 8.8854 16.1659 11.4219 13.0349 11.4219C9.90386 11.4219 7.3658 8.8854 7.3658 5.75655C7.3658 2.62832 9.90386 0.0917969 13.0349 0.0917969C16.1659 0.0917969 18.7039 2.62832 18.7039 5.75655ZM5.67045 12.8383C2.53949 12.8383 0.00131226 15.3741 0.00131226 18.5029C0.00131226 21.6315 2.53949 24.1678 5.67045 24.1678C8.80153 24.1678 11.3398 21.6315 11.3398 18.5029C11.3398 15.3741 8.80153 12.8383 5.67045 12.8383ZM20.3993 12.8378C17.2683 12.8378 14.7302 15.3741 14.7302 18.5029C14.7302 21.6315 17.2683 24.1678 20.3993 24.1678C23.5303 24.1678 26.0684 21.6315 26.0684 18.5029C26.0684 15.3741 23.5303 12.8378 20.3993 12.8378Z" fill="#A1A89D"/>
<path fill-rule="evenodd" clip-rule="evenodd" d="M46.015 18.4377C46.0889 19.2781 46.7616 20.3479 47.9271 20.3479H48.609C48.8733 20.3479 49.09 20.1313 49.09 19.867V4.88105H49.0871C49.0732 4.62859 48.8645 4.42638 48.609 4.42638H46.496C46.2405 4.42638 46.0318 4.62859 46.0176 4.88105H46.015V6.09875C44.7204 4.50415 42.6793 3.84229 40.6324 3.84229C35.9799 3.84229 32.2083 7.61393 32.2083 12.2668C32.2083 16.9199 35.9799 20.6917 40.6324 20.6917V20.692C42.6793 20.692 44.9099 19.8979 46.0148 18.4358L46.015 18.4377ZM40.6407 17.7431C37.6818 17.7431 35.2829 15.2915 35.2829 12.2668C35.2829 9.24255 37.6818 6.79079 40.6407 6.79079C43.5996 6.79079 45.9981 9.24255 45.9981 12.2668C45.9981 15.2915 43.5996 17.7431 40.6407 17.7431Z" fill="#A1A89D"/>
<path fill-rule="evenodd" clip-rule="evenodd" d="M80.4408 18.4373C80.5147 19.2777 81.1874 20.3474 82.3528 20.3474H83.0347C83.2991 20.3474 83.5155 20.1309 83.5155 19.8665V4.88057H83.5128C83.499 4.6281 83.29 4.4259 83.0347 4.4259H80.9217C80.6662 4.4259 80.4575 4.6281 80.4432 4.88057H80.4408V6.09826C79.146 4.50366 77.1049 3.8418 75.058 3.8418C70.4055 3.8418 66.6341 7.61344 66.6341 12.2663C66.6341 16.9194 70.4055 20.6912 75.058 20.6912V20.6915C77.1049 20.6915 79.3357 19.8974 80.4405 18.4353L80.4408 18.4373ZM75.0662 17.7427C72.1075 17.7427 69.7085 15.291 69.7085 12.2663C69.7085 9.24207 72.1075 6.79031 75.0662 6.79031C78.0253 6.79031 80.4237 9.24207 80.4237 12.2663C80.4237 15.291 78.0253 17.7427 75.0662 17.7427Z" fill="#A1A89D"/>
<path fill-rule="evenodd" clip-rule="evenodd" d="M118.925 18.4373C118.999 19.2777 119.671 20.3474 120.837 20.3474H121.519C121.783 20.3474 122 20.1309 122 19.8665V4.88057H121.997C121.983 4.6281 121.774 4.4259 121.519 4.4259H119.406C119.15 4.4259 118.941 4.6281 118.927 4.88057H118.925V6.09826C117.63 4.50366 115.589 3.8418 113.542 3.8418C108.89 3.8418 105.118 7.61344 105.118 12.2663C105.118 16.9194 108.89 20.6912 113.542 20.6912V20.6915C115.589 20.6915 117.82 19.8974 118.924 18.4353L118.925 18.4373ZM113.55 17.7427C110.591 17.7427 108.193 15.291 108.193 12.2663C108.193 9.24207 110.591 6.79031 113.55 6.79031C116.509 6.79031 118.908 9.24207 118.908 12.2663C118.908 15.291 116.509 17.7427 113.55 17.7427Z" fill="#A1A89D"/>
<path fill-rule="evenodd" clip-rule="evenodd" d="M101.655 19.0747L101.654 11.3201H101.654C101.654 6.94889 98.8965 4 94.4992 4C92.4 4 90.6793 5.21386 90.0715 6.25659C89.9402 5.44126 89.5073 4.58423 88.1649 4.58423H87.4807C87.2161 4.58423 87 4.80088 87 5.06524V18.5969V18.5989V20.0525H87.0027C87.0165 20.3045 87.2255 20.507 87.481 20.507H89.594C89.6263 20.507 89.6581 20.5032 89.6887 20.4971C89.7027 20.4945 89.7157 20.489 89.7293 20.4851C89.745 20.4803 89.7614 20.4766 89.7763 20.4704C89.7951 20.4626 89.8122 20.4521 89.8297 20.4424C89.8383 20.4372 89.8472 20.4335 89.8555 20.428C89.8766 20.4144 89.8959 20.398 89.9146 20.3813C89.9177 20.3782 89.9214 20.3762 89.9244 20.3733C89.9454 20.353 89.9646 20.3306 89.9816 20.3073L89.9817 20.307C90.0347 20.2343 90.0668 20.1468 90.072 20.0525H90.0747V11.1999C90.0747 8.85224 91.9781 6.94889 94.3259 6.94889C96.6736 6.94889 98.5769 8.85224 98.5769 11.1999L98.5788 18.5994L98.5794 18.5969C98.5794 18.6034 98.5804 18.6102 98.5804 18.6172V20.0525H98.5832C98.5971 20.3045 98.8059 20.507 99.0614 20.507H101.174C101.207 20.507 101.239 20.5032 101.269 20.4971C101.282 20.4948 101.293 20.4899 101.305 20.4864C101.323 20.4814 101.34 20.4771 101.357 20.4704C101.374 20.4633 101.39 20.4533 101.406 20.4441C101.416 20.4384 101.427 20.4343 101.437 20.428C101.456 20.4152 101.474 20.3997 101.491 20.3843C101.496 20.3802 101.501 20.3772 101.505 20.373C101.525 20.3536 101.543 20.3328 101.559 20.3109C101.56 20.3093 101.562 20.308 101.563 20.3063C101.615 20.2343 101.647 20.1475 101.652 20.0537C101.652 20.0531 101.653 20.0525 101.653 20.0525H101.655V19.0749L101.655 19.0747Z" fill="#A1A89D"/>
<path fill-rule="evenodd" clip-rule="evenodd" d="M54.1369 16.2912C55.5475 17.2684 57.0872 17.743 58.5668 17.743C59.9764 17.743 61.4337 17.0122 61.4337 15.7403C61.4337 14.0421 58.2583 13.7779 56.2632 13.0998C54.2677 12.4217 52.549 11.0199 52.549 8.74992C52.549 5.2764 55.6439 3.8418 58.5326 3.8418C60.3628 3.8418 62.2512 4.44534 63.4755 5.30991C63.8971 5.6294 63.6403 5.9962 63.6403 5.9962L62.4717 7.66537C62.3404 7.85337 62.1107 8.0158 61.781 7.81232C61.4513 7.60897 60.2949 6.79043 58.5326 6.79043C56.7701 6.79043 55.7085 7.60436 55.7085 8.6132C55.7085 9.82297 57.0883 10.2035 58.7045 10.6158C61.5208 11.375 64.5931 12.2875 64.5931 15.7403C64.5931 18.8007 61.7306 20.6921 58.5668 20.6921C56.1693 20.6921 54.1281 20.0086 52.4161 18.7523C52.0595 18.3953 52.3086 18.0639 52.3086 18.0639L53.4715 16.4032C53.7081 16.0927 54.0064 16.201 54.1369 16.2912Z" fill="#A1A89D"/>
</svg>
